<svg width="34" height="32" viewBox="0 0 34 32" fill="none" xmlns="http://www.w3.org/2000/svg">
<path d="M33.0547 7.07812C32.5311 5.86576 31.7761 4.76714 30.832 3.84374C29.8872 2.9176 28.7733 2.1816 27.5508 1.67578C26.2831 1.14919 24.9235 0.87965 23.5508 0.882809C21.625 0.882809 19.7461 1.41015 18.1133 2.40625C17.7227 2.64453 17.3516 2.90624 17 3.1914C16.6484 2.90624 16.2773 2.64453 15.8867 2.40625C14.2539 1.41015 12.375 0.882809 10.4492 0.882809C9.0625 0.882809 7.71875 1.14843 6.44922 1.67578C5.22266 2.18359 4.11719 2.91406 3.16797 3.84374C2.22264 4.7661 1.46749 5.86498 0.945312 7.07812C0.402344 8.33983 0.125 9.67968 0.125 11.0586C0.125 12.3594 0.390625 13.7148 0.917969 15.0937C1.35938 16.2461 1.99219 17.4414 2.80078 18.6484C4.08203 20.5586 5.84375 22.5508 8.03125 24.5703C11.6562 27.9179 15.2461 30.2304 15.3984 30.3242L16.3242 30.9179C16.7344 31.1797 17.2617 31.1797 17.6719 30.9179L18.5977 30.3242C18.75 30.2265 22.3359 27.9179 25.9648 24.5703C28.1523 22.5508 29.9141 20.5586 31.1953 18.6484C32.0039 17.4414 32.6406 16.2461 33.0781 15.0937C33.6055 13.7148 33.8711 12.3594 33.8711 11.0586C33.875 9.67968 33.5977 8.33983 33.0547 7.07812ZM17 27.8281C17 27.8281 3.09375 18.9179 3.09375 11.0586C3.09375 7.07812 6.38672 3.85156 10.4492 3.85156C13.3047 3.85156 15.7812 5.4453 17 7.77343C18.2188 5.4453 20.6953 3.85156 23.5508 3.85156C27.6133 3.85156 30.9062 7.07812 30.9062 11.0586C30.9062 18.9179 17 27.8281 17 27.8281Z" fill="white"/>
<path d="M23.5508 3.85156C20.6953 3.85156 18.2188 5.44531 17 7.77344C15.7812 5.44531 13.3047 3.85156 10.4492 3.85156C6.38672 3.85156 3.09375 7.07812 3.09375 11.0586C3.09375 18.918 17 27.8281 17 27.8281C17 27.8281 30.9062 18.918 30.9062 11.0586C30.9062 7.07812 27.6133 3.85156 23.5508 3.85156Z" fill="white" fill-opacity="0.15"/>
</svg>
